<?xml version="1.0" standalone="no"?>
<!DOCTYPE svg PUBLIC "-//W3C//DTD SVG 20010904//EN"
 "http://www.w3.org/TR/2001/REC-SVG-20010904/DTD/svg10.dtd">
<svg version="1.0" xmlns="http://www.w3.org/2000/svg"
 width="578.000000pt" height="578.000000pt" viewBox="0 0 578.000000 578.000000"
 preserveAspectRatio="xMidYMid meet">
<metadata>
Created by potrace 1.14, written by Peter Selinger 2001-2017
</metadata>
<g transform="translate(0.000000,578.000000) scale(0.100000,-0.100000)"
fill="#000000" stroke="none">
<path d="M2695 5280 c-52 -8 -126 -19 -160 -25 -53 -10 -217 -56 -279 -79
-172 -65 -371 -174 -500 -276 -164 -129 -338 -316 -416 -445 -13 -22 -29 -45
-36 -52 -6 -6 -17 -25 -24 -42 -7 -17 -16 -31 -21 -31 -5 0 -9 -4 -9 -10 0 -5
-22 -56 -49 -112 -51 -108 -115 -286 -125 -352 -4 -21 -8 -42 -11 -46 -3 -4
-7 -25 -10 -46 -3 -22 -8 -44 -10 -51 -24 -73 -25 -480 0 -603 2 -14 7 -38 10
-55 2 -16 9 -45 14 -63 5 -18 10 -36 11 -40 10 -68 69 -232 126 -349 31 -65
122 -213 217 -355 141 -210 297 -432 316 -448 3 -3 22 -27 40 -55 19 -27 38
-52 41 -55 3 -3 17 -21 30 -40 14 -19 28 -39 32 -45 5 -5 38 -48 73 -95 102
-133 156 -201 165 -210 3 -3 21 -25 40 -50 19 -25 44 -54 55 -66 11 -11 43
-47 70 -79 28 -32 64 -73 80 -91 17 -18 55 -61 85 -96 144 -163 433 -458 451
-458 6 0 49 38 97 84 48 46 107 102 131 125 24 22 41 47 38 54 -5 14 -307 476
-378 579 -21 31 -39 61 -39 66 0 6 -4 12 -8 14 -5 2 -33 41 -64 88 -72 111
-320 487 -436 663 -51 76 -92 142 -92 147 0 4 -4 10 -8 12 -8 3 -92 126 -92
135 0 2 -5 9 -10 16 -21 24 -211 318 -239 369 -28 54 -88 197 -96 233 -3 11
-11 47 -20 80 -8 33 -17 83 -21 110 -9 68 -9 291 0 340 4 22 9 54 12 70 3 17
10 48 16 70 6 22 12 42 13 45 19 83 150 352 184 380 4 3 21 24 39 47 68 86
185 194 282 259 69 46 180 106 180 97 0 -4 4 -3 8 2 16 22 222 85 329 101 59
9 333 11 333 3 0 -3 10 -5 23 -4 39 3 228 -49 317 -87 312 -133 568 -401 681
-713 60 -165 80 -276 81 -455 1 -338 -156 -686 -413 -915 -102 -90 -178 -142
-299 -201 -88 -44 -249 -96 -332 -108 l-48 -7 72 -107 c39 -59 75 -108 80
-110 4 -2 8 -8 8 -13 0 -7 295 -453 327 -494 4 -6 34 -50 67 -99 l59 -88 21
25 c245 291 483 608 593 790 20 34 40 64 43 67 4 3 10 12 14 20 4 8 12 24 19
35 165 271 275 496 332 685 1 3 4 12 8 20 6 16 36 149 43 190 42 270 36 510
-22 759 -59 259 -216 577 -381 771 -75 89 -210 218 -303 290 -25 19 -46 38
-48 42 -2 5 -8 8 -13 8 -5 0 -41 22 -81 48 -82 54 -184 108 -273 145 -92 37
-100 40 -105 42 -139 41 -198 58 -215 60 -5 1 -23 4 -40 8 -16 4 -48 9 -70 13
-22 3 -51 8 -65 11 -40 8 -390 11 -445 3z"/>
<path d="M2858 3895 c-2 -2 -19 -5 -38 -8 -48 -7 -143 -44 -173 -67 -14 -11
-28 -20 -31 -20 -26 0 -153 -167 -161 -212 -2 -10 -6 -22 -9 -26 -8 -14 -18
-64 -23 -122 -4 -49 1 -90 21 -180 12 -53 64 -136 122 -194 55 -56 152 -116
186 -116 8 0 19 -5 24 -10 22 -22 195 -20 279 3 99 27 239 148 287 248 57 119
68 274 27 375 -7 16 -13 31 -14 34 -6 26 -54 100 -87 136 -86 93 -211 152
-338 158 -38 2 -71 2 -72 1z"/>
</g>
</svg>
