<?xml version="1.0" encoding="utf-8"?>
<!-- Generator: Adobe Illustrator 25.0.1, SVG Export Plug-In . SVG Version: 6.00 Build 0)  -->
<svg version="1.1" id="Capa_1" xmlns="http://www.w3.org/2000/svg" xmlns:xlink="http://www.w3.org/1999/xlink" x="0px" y="0px"
	 viewBox="0 0 272.83 289.45" style="enable-background:new 0 0 272.83 289.45;" xml:space="preserve">
<style type="text/css">
	.st0{fill:#060933;}
</style>
<g>
	<path class="st0" d="M149.87,254.24c0.2-0.19,0.38-0.4,0.57-0.61c-0.15-0.25-0.26-0.45-0.39-0.64
		c-7.34-11.14-14.67-22.27-22.01-33.41c-14.4-21.87-28.78-43.76-43.2-65.62c-6.05-9.17-9.57-19.19-10.42-30.15
		c-0.35-4.48-0.22-8.94,0.39-13.38c0.95-6.92,2.99-13.5,6.14-19.73c9.93-19.64,29.79-33.32,53.03-34.46
		c5.46-0.27,10.87,0.14,16.22,1.31c13.54,2.96,24.94,9.62,34.08,20.03c9.41,10.73,14.55,23.29,15.48,37.55
		c0.37,5.57,0.02,11.1-1.16,16.54c-3.69,17.05-12.85,30.42-27.38,40.04c-7.47,4.95-15.7,8.02-24.56,9.37
		c-0.45,0.07-0.89,0.15-1.46,0.25c10.22,15.23,20.38,30.36,30.6,45.58c0.33-0.37,0.57-0.64,0.8-0.91
		c6.03-6.95,11.81-14.1,17.3-21.49c10.09-13.58,19.11-27.84,26.79-42.93c6.46-12.68,9.86-26.14,10.26-40.35
		c0.15-5.14-0.15-10.27-0.85-15.37c-0.84-6.12-2.24-12.1-4.27-17.93c-5.51-15.79-14.51-29.25-27.14-40.18
		c-17.44-15.1-37.76-22.8-60.82-23.2c-6.46-0.11-12.85,0.49-19.19,1.73c-8.67,1.7-16.96,4.52-24.8,8.6
		c-18.6,9.68-32.56,23.93-41.82,42.75c-5.19,10.55-8.16,21.72-9.12,33.43c-0.31,3.8-0.39,7.6-0.23,11.41
		c0.19,4.47,0.66,8.92,1.47,13.32c1.54,8.36,4.12,16.39,7.88,24.02c4.2,8.51,12.27,19.09,17.32,27.12
		c17.28,23.51,18.67,25.43,30.86,40.74c11.81,13.46,23,26.67,36.17,38.79c0.14,0.13,0.3,0.23,0.39,0.3L149.87,254.24z"/>
	<path class="st0" d="M137.07,94.36c13.23-0.09,24.38,10.76,24.36,24.37c-0.01,13.5-10.92,24.43-24.41,24.42
		c-13.44,0-24.37-10.94-24.37-24.4C112.65,104.97,123.93,94.24,137.07,94.36z"/>
</g>
</svg>
