<svg xmlns="http://www.w3.org/2000/svg" viewBox="0 0 171.3 42.96" fill="#060933">
    <defs>
        <style>.cls-1{fill:#060933;}</style>
    </defs>
    <title>imglogoParqueosYa</title>
    <g id="Capa_2" data-name="Capa 2">
        <g id="Capa_1-2" data-name="Capa 1">
            <path class="cls-1" d="M19,40.76a.52.52,0,0,0,.1-.11l-.07-.11-3.9-5.93Q11.34,28.79,7.5,23A11.15,11.15,0,0,1,19.1,5.87a11.16,11.16,0,0,1,8.79,10.21A10.65,10.65,0,0,1,27.68,19a11,11,0,0,1-4.86,7.1,10.69,10.69,0,0,1-4.36,1.66l-.26,0,5.43,8.08.14-.16c1.07-1.23,2.1-2.5,3.07-3.81a53.48,53.48,0,0,0,4.75-7.61,16.76,16.76,0,0,0,1.67-9.89A16.68,16.68,0,0,0,27.69,4.11,16.42,16.42,0,0,0,16.9,0a16.18,16.18,0,0,0-3.4.31A16,16,0,0,0,9.1,1.84,16.65,16.65,0,0,0,1.68,9.42,16.32,16.32,0,0,0,.06,15.35a15.14,15.14,0,0,0,0,2,17,17,0,0,0,.26,2.36A16,16,0,0,0,1.68,24c.74,1.51,2.18,3.39,3.07,4.81C7.82,33,8.06,33.31,10.22,36a85.25,85.25,0,0,0,6.42,6.88l.07.05Z" />
            <path class="cls-1" d="M16.76,12.4a4.33,4.33,0,1,1-4.33,4.32A4.31,4.31,0,0,1,16.76,12.4Z" />
            <path d="M46.87,15.36q3.85,0,5.21,2.25a5,5,0,0,1,1,3.19v.27q0,3.91-4.27,5.21a11.49,11.49,0,0,1-2.56.27H44v4.54H39.61V15.37h7.26ZM44,19v3.77h2c1.41,0,2.22-.16,2.43-.49a2.2,2.2,0,0,0,.36-1.21c0-1.38-.88-2.07-2.65-2.07Z" />
            <path d="M58.31,31.37a6.11,6.11,0,0,1-2.16-.4C54.05,29.91,53,28,53,25.24v-.13a5.93,5.93,0,0,1,.76-3,5,5,0,0,1,4.31-2.52h.58a4.19,4.19,0,0,1,2.72,1.08v-1h4.49V31.09h-4.5V30.3h0A4.53,4.53,0,0,1,58.31,31.37Zm-.54-5.81A4.49,4.49,0,0,0,58,27.15a1.58,1.58,0,0,0,1.62.94,2.42,2.42,0,0,1,.45,0q1.44-.29,1.44-2.58c0-1.13-.13-1.77-.31-1.93q0-.57-1.44-.72h-.27a3.05,3.05,0,0,0-.81.13,2.51,2.51,0,0,0-.9,2.25Z" />
            <path d="M74.69,19.45l1.3.27v4.13h-.67c-1.74,0-2.88.48-3.41,1.44a4.64,4.64,0,0,0-.49,2.52v3.28H67.06V19.63h4.26V22L72,20.85A3.27,3.27,0,0,1,74.69,19.45Z" />
            <path d="M81.51,19.34a4.54,4.54,0,0,1,3,1.08h0v-.79h4.5V34.45H84.58v-5a4.19,4.19,0,0,1-2.72,1.08h-.58A5,5,0,0,1,77,28.05a5.93,5.93,0,0,1-.76-3v-.13a5.39,5.39,0,0,1,3.14-5.17A6.19,6.19,0,0,1,81.51,19.34ZM81,24.59V25a2.51,2.51,0,0,0,.9,2.25,3.05,3.05,0,0,0,.81.13H83q1.44-.15,1.44-.72c.18-.16.28-.8.31-1.93s-.48-1.84-1.44-2a3.75,3.75,0,0,1-.45,0,1.58,1.58,0,0,0-1.62.94A2.81,2.81,0,0,0,81,24.59Z" />
            <path d="M90.21,19.63h4.22v5.91c0,1.12.39,1.8,1.17,2.07a2.23,2.23,0,0,0,.4,0h.27a1.77,1.77,0,0,0,1.61-1.79V19.64h4.27V31.16H97.88V29.59a4.43,4.43,0,0,1-3.46,1.84h-.31a3.68,3.68,0,0,1-3.73-2.79,7.36,7.36,0,0,1-.18-1.53V19.63Z" />
            <path d="M109.15,19.25q4.72,0,6,4.9a10,10,0,0,1,.22,2.3v.21h-8.27v0A2.29,2.29,0,0,0,108.2,28a2.73,2.73,0,0,0,1.26.35h.16a2,2,0,0,0,1.5-.9h4v0q-2.23,3.93-5.66,3.93a6.26,6.26,0,0,1-4.9-1.89,6,6,0,0,1-1.71-4.13,5.83,5.83,0,0,1,1.8-4.35A6.38,6.38,0,0,1,109.15,19.25ZM107.09,24h4.13v0a1.45,1.45,0,0,0-.67-1,2.73,2.73,0,0,0-1.26-.31C108.07,22.64,107.33,23.09,107.09,24Z" />
            <path d="M122.67,19a6.73,6.73,0,0,1,5.71,3.05,6,6,0,0,1,.85,2.92v.63a6,6,0,0,1-2.2,4.45,6.92,6.92,0,0,1-4.49,1.57,6.58,6.58,0,0,1-5.66-3,5.93,5.93,0,0,1-.94-3.23v-.18a6.15,6.15,0,0,1,3.32-5.44A7.39,7.39,0,0,1,122.67,19Zm-1.93,6.07v.58c0,1.37.43,2.15,1.3,2.34l.63,0a1.45,1.45,0,0,0,1.53-.94,5.67,5.67,0,0,0,.27-1.8c0-1.8-.61-2.7-1.84-2.7h-.13a1.46,1.46,0,0,0-1.48,1A3.77,3.77,0,0,0,120.74,25.09Z" />
            <path d="M134.44,19.11H135a10.33,10.33,0,0,1,4.93,1.35q0,.11-1.47,2.7l-1.54-.43a6.89,6.89,0,0,0-1.85-.31h-.28A.71.71,0,0,0,134,23c0,.25.6.5,1.8.76a8.69,8.69,0,0,1,3.39,1.46,3.06,3.06,0,0,1,1,2.43q0,3.13-3.69,3.91a12.79,12.79,0,0,1-1.33.09h-.34A10.34,10.34,0,0,1,129,29.9v0c1.06-1.67,1.62-2.51,1.66-2.52h0a8.12,8.12,0,0,0,3.82,1h.28c.67,0,1-.15,1-.45s-.79-.78-2.37-1.08A5.52,5.52,0,0,1,130,24.87a3.53,3.53,0,0,1-.47-1.75q0-3,3.69-3.91A8.59,8.59,0,0,1,134.44,19.11Z" />
            <path class="cls-1" d="M149.8,23.57v7.51h-4.49V23.57L140,15.36H145l2.58,4,2.58-4h4.94Z" />
            <path class="cls-1" d="M158.07,31.37a6.11,6.11,0,0,1-2.16-.4c-2.1-1.06-3.14-3-3.14-5.73v-.13a5.93,5.93,0,0,1,.76-3,5,5,0,0,1,4.31-2.52h.58a4.19,4.19,0,0,1,2.72,1.08v-1h4.49V31.09h-4.5V30.3h0A4.53,4.53,0,0,1,158.07,31.37Zm-.54-5.81a4.49,4.49,0,0,0,.22,1.59,1.58,1.58,0,0,0,1.62.94,2.42,2.42,0,0,1,.45,0q1.44-.29,1.44-2.58c0-1.13-.13-1.77-.31-1.93q0-.57-1.44-.72h-.27a3.05,3.05,0,0,0-.81.13,2.51,2.51,0,0,0-.9,2.25Z" />
            <path class="cls-1" d="M166.81,26.82V15.36h4.49V26.82Zm4.49,1.12v3.14h-4.49V27.94Z" />
        </g>
    </g>
</svg>