<?xml version="1.0" encoding="utf-8"?>
<!-- Generator: Adobe Illustrator 25.0.1, SVG Export Plug-In . SVG Version: 6.00 Build 0)  -->
<svg version="1.1" id="Capa_1" xmlns="http://www.w3.org/2000/svg" xmlns:xlink="http://www.w3.org/1999/xlink" x="0px" y="0px"
	 viewBox="0 0 180 51" style="enable-background:new 0 0 180 51;" xml:space="preserve">
<style type="text/css">
	.st0{fill:#FFFFFF;}
</style>
<g>
	<path class="st0" d="M24,44.3l0.1-0.1L24,44.1c-1.3-2-2.6-3.9-3.9-5.9c-2.5-3.9-5.1-7.8-7.7-11.6c-1.1-1.6-1.7-3.4-1.8-5.4
		c-0.1-0.8,0-1.6,0.1-2.4c0.2-1.2,0.5-2.4,1.1-3.5c1.8-3.5,5.3-5.9,9.4-6.1c1-0.1,1.9,0,2.9,0.2c2.4,0.5,4.4,1.7,6,3.6
		c1.7,1.9,2.6,4.1,2.8,6.7c0.1,1,0,2-0.2,2.9c-0.7,3-2.3,5.4-4.9,7.1c-1.3,0.9-2.8,1.4-4.4,1.7c-0.1,0-0.2,0-0.3,0
		c1.8,2.7,3.6,5.4,5.4,8.1c0.1-0.1,0.1-0.1,0.1-0.2c1.1-1.2,2.1-2.5,3.1-3.8c1.8-2.4,3.4-4.9,4.8-7.6c1.2-2.2,1.8-4.6,1.8-7.2
		c0-0.9,0-1.8-0.2-2.7c-0.2-1.1-0.4-2.1-0.8-3.2c-1-2.8-2.6-5.2-4.8-7.1c-3.1-2.7-6.7-4-10.8-4.1c-1.1,0-2.3,0.1-3.4,0.3
		c-1.5,0.3-3,0.8-4.4,1.5C10.6,7.1,8.1,9.6,6.5,13c-0.9,1.9-1.5,3.9-1.6,5.9c-0.1,0.7-0.1,1.4,0,2c0,0.8,0.1,1.6,0.3,2.4
		c0.3,1.5,0.7,2.9,1.4,4.3c0.7,1.5,2.2,3.4,3.1,4.8c3.1,4.2,3.3,4.5,5.5,7.2c2.1,2.4,4.1,4.7,6.4,6.9c0,0,0.1,0,0.1,0.1L24,44.3z"/>
	<path class="st0" d="M21.7,15.9c2.3,0,4.3,1.9,4.3,4.3c0,2.4-1.9,4.3-4.3,4.3s-4.3-1.9-4.3-4.3C17.4,17.8,19.4,15.9,21.7,15.9z"/>
</g>
<g>
	<path class="st0" d="M51.9,18.9c2.6,0,4.3,0.8,5.2,2.2c0.7,0.9,1,1.9,1,3.2v0.3c0,2.6-1.4,4.4-4.3,5.2c-0.8,0.2-1.6,0.3-2.6,0.3
		h-2.3v4.5h-4.4V18.9H51.9L51.9,18.9z M49,22.6v3.8h2c1.4,0,2.2-0.2,2.4-0.5c0.2-0.4,0.4-0.8,0.4-1.2c0-1.4-0.9-2.1-2.7-2.1H49
		L49,22.6z"/>
	<path class="st0" d="M63.3,34.9c-0.7,0-1.4-0.1-2.2-0.4c-2.1-1.1-3.1-3-3.1-5.7v-0.1c0-1.1,0.2-2.1,0.8-3c1.1-1.7,2.5-2.5,4.3-2.5
		h0.6c0.9,0,1.9,0.4,2.7,1.1v-1h4.5v11.5h-4.6V34l0,0C65.4,34.5,64.4,34.9,63.3,34.9z M62.7,29.1c0,0.7,0.1,1.2,0.2,1.6
		c0.3,0.6,0.8,0.9,1.6,0.9c0.2,0,0.3,0,0.4,0c1-0.2,1.4-1.1,1.4-2.6c0-1.1-0.1-1.8-0.3-1.9c0-0.4-0.5-0.6-1.4-0.7h-0.3
		c-0.2,0-0.5,0-0.8,0.1c-0.6,0.4-0.9,1.1-0.9,2.2C62.8,28.7,62.8,29.1,62.7,29.1z"/>
	<path class="st0" d="M79.7,23l1.3,0.3v4.1h-0.7c-1.7,0-2.9,0.5-3.4,1.4c-0.3,0.5-0.5,1.3-0.5,2.5v3.3H72V23.1h4.3v2.3l0.7-1.1
		C77.7,23.4,78.6,23,79.7,23z"/>
	<path class="st0" d="M86.5,22.9c1.1,0,2.1,0.4,3,1.1l0,0v-0.8H94v9.5V38h-4.5v-5c-0.9,0.7-1.8,1.1-2.7,1.1h-0.5
		c-1.8,0-3.2-0.8-4.3-2.5c-0.5-0.9-0.8-1.9-0.8-3v-0.1c0-2.4,1.1-4.1,3.1-5.2C85.1,23,85.8,22.9,86.5,22.9z M86,28.1v0.4
		c0,1.1,0.3,1.9,0.9,2.2c0.3,0.1,0.6,0.1,0.8,0.1H88c1-0.1,1.4-0.3,1.4-0.7c0.2-0.2,0.3-0.8,0.3-1.9c0-1.2-0.5-1.8-1.4-2
		c-0.1,0-0.3,0-0.4,0c-0.8,0-1.4,0.3-1.6,0.9C86,27.5,86,27.8,86,28.1z"/>
	<path class="st0" d="M95.2,23.1h4.2V29c0,1.1,0.4,1.8,1.2,2.1c0.2,0,0.3,0,0.4,0h0.3c0.8,0,1.3-0.5,1.6-1.4c0-0.1,0-0.2,0-0.4v-6.2
		h4.3v11.6h-4.3v-1.6c-1,1.2-2.2,1.8-3.5,1.8h-0.3c-1.9,0-3.1-0.9-3.7-2.8c-0.1-0.6-0.2-1.1-0.2-1.5V23.1L95.2,23.1z"/>
	<path class="st0" d="M114.1,22.8c3.1,0,5.2,1.6,6,4.9c0.1,0.6,0.2,1.4,0.2,2.3v0.2H112l0,0c0.2,0.6,0.6,1.1,1.1,1.3
		c0.4,0.2,0.9,0.4,1.3,0.4h0.2c0.5,0,1-0.3,1.5-0.9h4l0,0c-1.5,2.6-3.4,3.9-5.7,3.9c-2.1,0-3.8-0.6-4.9-1.9
		c-1.1-1.3-1.7-2.6-1.7-4.1c0-1.7,0.6-3.2,1.8-4.4C110.9,23.4,112.4,22.8,114.1,22.8z M112.1,27.5h4.1l0,0c0-0.3-0.2-0.7-0.7-1
		c-0.4-0.2-0.8-0.3-1.3-0.3C113.1,26.2,112.3,26.6,112.1,27.5z"/>
	<path class="st0" d="M127.7,22.5c2.4,0,4.2,1,5.7,3.1c0.6,1,0.9,2,0.9,2.9v0.6c0,1.6-0.7,3.1-2.2,4.4c-1.3,1.1-2.8,1.6-4.5,1.6
		c-2.4,0-4.3-1-5.7-3c-0.6-1-0.9-2.1-0.9-3.2v-0.2c0-2.3,1.1-4.1,3.3-5.4C125.3,22.8,126.4,22.5,127.7,22.5z M125.7,28.6v0.6
		c0,1.4,0.4,2.1,1.3,2.3h0.6c0.8,0,1.3-0.3,1.5-0.9c0.2-0.5,0.3-1.1,0.3-1.8c0-1.8-0.6-2.7-1.8-2.7h-0.1c-0.7,0-1.2,0.3-1.5,1
		C125.8,27.6,125.7,28.1,125.7,28.6z"/>
	<path class="st0" d="M139.4,22.6h0.5c1.6,0,3.3,0.4,4.9,1.4c0,0.1-0.5,1-1.5,2.7l-1.5-0.4c-0.7-0.2-1.4-0.3-1.9-0.3h-0.3
		c-0.5,0-0.7,0.2-0.8,0.6c0,0.2,0.6,0.5,1.8,0.8c1.7,0.5,2.8,0.9,3.4,1.5c0.7,0.6,1,1.4,1,2.4c0,2.1-1.2,3.4-3.7,3.9
		c-0.6,0.1-1,0.1-1.3,0.1h-0.3c-2.1,0-4.1-0.6-5.8-1.8l0,0c1.1-1.7,1.6-2.5,1.7-2.5l0,0c1.3,0.7,2.5,1,3.8,1h0.3c0.7,0,1-0.1,1-0.4
		c0-0.4-0.8-0.8-2.4-1.1c-1.7-0.5-2.9-1.1-3.4-1.9c-0.3-0.6-0.5-1.1-0.5-1.8c0-2,1.2-3.3,3.7-3.9C138.7,22.7,139.1,22.6,139.4,22.6z
		"/>
	<path class="st0" d="M154.8,27.1v7.5h-4.5v-7.5l-5.3-8.2h4.9l2.6,4l2.6-4h4.9L154.8,27.1z"/>
	<path class="st0" d="M163.1,34.9c-0.7,0-1.4-0.1-2.2-0.4c-2.1-1.1-3.1-3-3.1-5.7v-0.1c0-1.1,0.2-2.1,0.8-3c1.1-1.7,2.5-2.5,4.3-2.5
		h0.6c0.9,0,1.9,0.4,2.7,1.1v-1h4.5v11.5h-4.5V34l0,0C165.2,34.5,164.2,34.9,163.1,34.9z M162.5,29.1c0,0.7,0.1,1.2,0.2,1.6
		c0.3,0.6,0.8,0.9,1.6,0.9c0.2,0,0.3,0,0.4,0c1-0.2,1.4-1.1,1.4-2.6c0-1.1-0.1-1.8-0.3-1.9c0-0.4-0.5-0.6-1.4-0.7h-0.3
		c-0.2,0-0.5,0-0.8,0.1c-0.6,0.4-0.9,1.1-0.9,2.2v0.4H162.5z"/>
	<path class="st0" d="M171.8,30.3V18.8h4.5v11.5H171.8z M176.3,31.5v3.1h-4.5v-3.1H176.3z"/>
</g>
</svg>
